<svg version="1" xmlns="http://www.w3.org/2000/svg" width="170.667" height="170.667" viewBox="0 0 128.000000 128.000000"><path d="M29 62v51.1l26.8-.3c24.8-.3 27-.5 31.2-2.4 9.5-4.5 15.8-14 16.7-25.2.3-3.7 0-8.5-.6-10.8-1.5-5.4-6.2-12.4-10.5-15.2l-3.5-2.4 3.5-4.5c3.9-5.1 4.9-8 4.8-14.3-.1-10.4-5.7-20-14.1-24.1-4.6-2.3-5.9-2.4-29.5-2.7L29 10.9V62zm48.9-34.4c6.1 5.1 6.4 15 .5 20.5-2.4 2.3-3.3 2.4-19 2.9l-16.4.5V25h15.9c15.7 0 16 0 19 2.6zm3 40.2c5.2 2.6 7.4 6.3 7.9 13 .6 8-2.2 13.6-8.1 16.3C77.1 98.7 74 99 59.8 99H43V66h17.3c14.4 0 17.8.3 20.6 1.8z"/></svg>